# xmcd
#
# Track frame offsets:
# 150
# 12675
# 24126
# 34288
# 47796
# 57315
# 68580
# 84976
# 103231
# 115983
#
# Disc length: 1715 seconds
#
#
# Revision: 0
# Processed by: cddbd v1.5.2PL0 Copyright (c) Steve Scherf et al.
# Submitted via: FreeRIP 2.945 
#
DISCID=8006b10a
DTITLE=Merle Haggard - Okie From Muskogee
DYEAR=2004
DGENRE=Country
TTITLE0=Okie From Muskogee
TTITLE1=I Take A Lot Of Pride In What I Am
TTITLE2=The Way I Am
TTITLE3=Roots Of My Raising
TTITLE4=Sing Me Back Home
TTITLE5=Silver Wings
TTITLE6=My Friends Are Gonna Be Strangers
TTITLE7=Cherokee Maiden
TTITLE8=Old Man From The Mountain
TTITLE9=The Farmer's Daughter
EXTD=
EXTT0=
EXTT1=
EXTT2=
EXTT3=
EXTT4=
EXTT5=
EXTT6=
EXTT7=
EXTT8=
EXTT9=
PLAYORDER=
